<svg xmlns="http://www.w3.org/2000/svg" viewBox="0 0 1200 750">
  <defs>
    <linearGradient id="bg" x1="0" x2="1" y1="0" y2="1"><stop stop-color="#061817"/><stop offset="1" stop-color="#123C36"/></linearGradient>
    <linearGradient id="glow" x1="0" x2="1"><stop stop-color="#30E6C2"/><stop offset="1" stop-color="#7DF8D9"/></linearGradient>
    <filter id="blur"><feGaussianBlur stdDeviation="28"/></filter>
  </defs>
  <rect width="1200" height="750" rx="44" fill="url(#bg)"/>
  <circle cx="940" cy="130" r="150" fill="#30E6C2" opacity=".14" filter="url(#blur)"/>
  <circle cx="210" cy="640" r="190" fill="#7DF8D9" opacity=".08" filter="url(#blur)"/>
  <path d="M120 600V335l170 110V335l175 112V335l200 130v135H120z" fill="#0E2A27" stroke="#30E6C2" stroke-width="8"/>
  <path d="M145 335l24-155h100l28 260" fill="none" stroke="#A1C6BF" stroke-width="14" stroke-linejoin="round"/>
  <rect x="720" y="230" width="300" height="330" rx="26" fill="#081F1D" stroke="#30E6C2" stroke-width="7"/>
  <rect x="756" y="268" width="228" height="58" rx="14" fill="#133A35" stroke="#7DF8D9" stroke-width="4"/>
  <rect x="756" y="350" width="228" height="58" rx="14" fill="#133A35" stroke="#7DF8D9" stroke-width="4"/>
  <rect x="756" y="432" width="228" height="58" rx="14" fill="#133A35" stroke="#7DF8D9" stroke-width="4"/>
  <circle cx="788" cy="297" r="9" fill="#30E6C2"/><circle cx="788" cy="379" r="9" fill="#30E6C2"/><circle cx="788" cy="461" r="9" fill="#30E6C2"/>
  <path d="M675 395H520M520 395v-75H405M520 395v85H405" stroke="#7DF8D9" stroke-width="8" stroke-linecap="round" opacity=".9"/>
  <rect x="235" y="510" width="96" height="90" rx="10" fill="#133A35" stroke="#7DF8D9" stroke-width="5"/>
  <rect x="390" y="505" width="100" height="95" rx="10" fill="#133A35" stroke="#7DF8D9" stroke-width="5"/>
  <text x="94" y="110" fill="#E9FFFB" font-family="Inter, Arial" font-size="54" font-weight="800">Industrial IT</text>
  <text x="96" y="158" fill="#A1C6BF" font-family="Inter, Arial" font-size="28">Manufacturing systems · network · ERP operations</text>
</svg>
